<mxfile host="app.diagrams.net" modified="2021-07-08T13:01:57.134Z" agent="5.0 (Windows NT 10.0; Win64; x64) AppleWebKit/537.36 (KHTML, like Gecko) Chrome/91.0.4472.124 Safari/537.36" etag="SOe-uP-znqLYJ1YpBmPo" version="14.8.5" type="github">
  <diagram id="rF0MZNcRRqEWo4qw4FBU" name="Page-1">
    <mxGraphModel dx="1278" dy="491" grid="1" gridSize="10" guides="1" tooltips="1" connect="1" arrows="1" fold="1" page="1" pageScale="1" pageWidth="827" pageHeight="1169" math="0" shadow="0">
      <root>
        <mxCell id="0" />
        <mxCell id="1" parent="0" />
      </root>
    </mxGraphModel>
  </diagram>
</mxfile>
